<?xml version="1.0" encoding="UTF-8"?>
<svg width="12px" height="12px" viewBox="0 0 12 12" version="1.1" xmlns="http://www.w3.org/2000/svg" xmlns:xlink="http://www.w3.org/1999/xlink">
    <!-- Generator: sketchtool 59.1 (101010) - https://sketch.com -->
    <title>932EA970-A09B-4D16-B6C1-5DD5D821AA3E</title>
    <desc>Created with sketchtool.</desc>
    <g id="01-organization-onboarding" stroke="none" stroke-width="1" fill="none" fill-rule="evenodd" opacity="0.300000012">
        <g id="00-onb-org-s1-v1.2" transform="translate(-1099.000000, -73.000000)" fill="#FFFFFF" fill-rule="nonzero">
            <g id="status" transform="translate(1076.000000, 43.000000)">
                <g id="Icon/Info/Default-Copy-Icon/Info/Default" transform="translate(21.000000, 28.000000)">
                    <path d="M3.7572691,3.7572691 C6.10068588,1.4141132 9.89977065,1.41437407 12.2429266,3.7572691 C14.5855607,6.10068588 14.5858216,9.89950978 12.2429266,12.2429266 C9.89950978,14.5858216 6.10042501,14.5855607 3.7572691,12.2429266 C1.41437407,9.89950978 1.4141132,6.10042501 3.7572691,3.7572691 Z M8.00001144,7.63636364 C7.4597644,7.63636364 7.00001144,8.05432326 7.00001144,8.60606061 L7.00001144,8.60606061 L7.00001144,11.030303 C7.00001144,11.5820404 7.4597644,12 8.00001144,12 C8.54024705,12 9,11.5820404 9,11.030303 L9,11.030303 L9,8.60606061 C9,8.05432326 8.54024705,7.63636364 8.00001144,7.63636364 Z M7.99572988,4 C7.40897732,4 6.98783941,4.47493263 7.00027776,5.10351225 C6.98758492,5.69968641 7.41128745,6.18181818 7.98767953,6.18181818 C8.57342626,6.18181818 8.99964638,5.70946961 9,5.09589282 C8.98721881,4.46357696 8.57605026,4 7.99572988,4 Z" id="icon"></path>
                </g>
            </g>
        </g>
    </g>
</svg>