<?xml version="1.0" encoding="UTF-8"?>
<svg width="138px" height="24px" viewBox="0 0 138 24" version="1.1" xmlns="http://www.w3.org/2000/svg" xmlns:xlink="http://www.w3.org/1999/xlink">
    <!-- Generator: sketchtool 57.1 (101010) - https://sketch.com -->
    <title>8929C8A6-9051-4459-9102-93CCCC50D02E</title>
    <desc>Created with sketchtool.</desc>
    <g id="02-user-management-multi-edit-flow+improvements" stroke="none" stroke-width="1" fill="none" fill-rule="evenodd">
        <g id="02-ME-bottom-bar-hide" transform="translate(-34.000000, -877.000000)" fill-rule="nonzero">
            <g id="sidebar" transform="translate(0.000000, 48.000000)">
                <g id="bottom-block">
                    <g transform="translate(0.000000, 781.000000)">
                        <g id="renaizant" transform="translate(0.000000, 39.000000)">
                            <g id="identity/logotype/full-Identity/Logotype/Full" transform="translate(34.000000, 9.000000)">
                                <g id="type" transform="translate(32.000000, 3.000000)" fill="#FFFFFF">
                                    <path d="M101.997048,1.87388571 L101.997048,5.6785551 L105.158242,5.6785551 L105.158242,6.39907755 L101.997048,6.39907755 L101.997048,13.2201714 C101.997048,14.5257714 102.328757,15.0886449 103.29735,15.0886449 C104.014949,15.0886449 104.574433,14.6390122 105.066469,13.6253959 L105.335154,13.7608408 C104.685003,15.3817388 103.742947,16.1688735 102.106512,16.1688735 C100.292059,16.1688735 99.0149767,15.2895918 99.0149767,13.0181143 L99.0149767,6.42128163 L97.0247181,6.42128163 L97.0247181,6.06157551 L99.0592047,5.63081633 L99.0592047,2.77426122 L101.997048,1.87388571 Z M17.4165825,5.38657143 C20.5556627,5.38657143 22.1920976,7.47930612 22.036194,10.3824898 L15.2914285,10.3824898 L15.2914285,10.8332327 C15.2914285,13.5787673 16.4568355,15.1996653 18.6770796,15.1996653 C20.0448296,15.1996653 20.9194377,14.5246612 21.7730376,13.3545061 L22.0196085,13.5121551 C21.0333248,15.0875347 19.6655748,16.1455597 17.4464363,16.1455597 C14.2786079,16.1466694 12.1258115,14.1882694 12.1258115,10.9009551 C12.1258115,7.50262041 14.5251789,5.38657143 17.4165825,5.38657143 Z M43.3883525,10.2537061 C42.2384252,10.6655918 41.7574461,11.901249 41.7574461,13.0769551 C41.7574461,14.1349796 42.2970273,14.8321878 43.305425,14.8321878 C44.368002,14.8321878 44.5968818,14.0206286 44.5968818,14.0206286 C44.5968818,14.7511429 43.5940125,16.0711755 41.6922098,16.0711755 C39.5604216,16.0711755 38.5962519,14.7200571 38.5962519,13.4366612 C38.6013887,12.4543087 39.1444473,11.5544834 40.0093355,11.0952408 C40.8323075,10.6476065 41.8997827,10.4463709 42.8466184,10.3199542 L43.1572613,10.280351 L43.3883525,10.2537061 Z M76.0617657,10.2537061 C74.9118385,10.6655918 74.4308593,11.901249 74.4308593,13.0769551 C74.4308593,14.1349796 74.9704405,14.8321878 75.9788383,14.8321878 C77.0414153,14.8321878 77.270295,14.0206286 77.270295,14.0206286 C77.270295,14.7511429 76.2674258,16.0711755 74.3645174,16.0711755 C72.2327292,16.0711755 71.2685594,14.7200571 71.2685594,13.4366612 C71.2736963,12.4543087 71.8167549,11.5544834 72.6816431,11.0952408 C73.5971621,10.5978694 74.8123256,10.4046939 75.8306746,10.280351 L75.8306746,10.280351 Z M44.3281968,5.46872653 C46.5962809,5.61038857 47.8187518,6.60273832 47.8977298,8.73660032 L47.9018169,8.96142857 L47.9018169,13.9773306 C47.9018169,15.0338286 48.2887137,15.3878121 49.3914374,14.9601337 L49.5393575,14.8999102 L49.6731471,15.1541469 C48.8438726,15.6948163 48.1716075,16.0545224 47.2748854,16.0545224 C45.8618017,16.0545224 45.0856008,15.1064082 45.0104133,14.343698 C44.9396485,13.6258531 44.9217737,8.81495846 44.9199156,8.25145476 L44.919746,8.19760816 C44.919746,7.19509388 44.776005,6.7654449 44.3027658,6.18702857 C43.8610758,5.64717333 43.0996077,5.48932698 43.0000417,5.47068016 L42.989195,5.46872653 L44.3281968,5.46872653 Z M77.0038215,5.46872653 C79.2719055,5.61038857 80.4943765,6.60273832 80.5733544,8.73660032 L80.5774415,8.96142857 L80.5774415,13.9773306 C80.5774415,15.0338286 80.9643384,15.3878121 82.0670621,14.9601337 L82.2149821,14.8999102 L82.3487717,15.1541469 C81.5194973,15.6948163 80.8472321,16.0545224 79.95051,16.0545224 C78.5374264,16.0545224 77.7601198,15.1064082 77.6849322,14.343698 C77.6163789,13.6482857 77.5983807,9.11164226 77.5957382,8.31647223 L77.5953706,8.19760816 C77.5953706,7.19509388 77.4527354,6.7654449 76.9783904,6.18702857 C76.5356684,5.64717333 75.7750948,5.48932698 75.6756526,5.47068016 L75.6648197,5.46872653 L77.0038215,5.46872653 Z M88.0000007,5.52090612 C88.0000007,5.52090612 88.0591719,7.98299136 88.0476146,8.24528772 L88.0453343,8.26755102 L88.0453343,14.8632735 C88.0453343,15.4544571 88.3213272,15.6494801 89.0755702,15.690759 L89.2328554,15.6970367 L89.2328554,15.9668163 L83.4931705,15.9668163 L83.4931705,15.6970367 C84.7295081,15.6748882 85.0338131,15.5114633 85.0611528,14.9545191 L85.0632634,14.8632735 L85.0632634,7.1196 C85.0632634,6.47834612 84.8207753,6.05952718 83.6807318,6.0002112 L83.4931705,5.99385306 L83.4931705,5.72407347 L88.0000007,5.52090612 Z M91.8787937,5.45318367 C93.6945493,5.45318367 94.6148028,6.49995602 94.6782192,8.47205565 L94.6817413,8.69497959 L94.6817413,14.8632735 C94.6817413,15.4623396 94.9062674,15.6546103 96.0388267,15.6923288 L96.2252975,15.6970367 L96.2252975,15.9668163 L90.4634986,15.9668163 L90.4634986,15.6970367 C91.308322,15.6751796 91.6526652,15.5157395 91.692408,14.9762999 L91.6963533,14.8632735 L91.6963533,8.89814694 C91.6963533,7.54702857 91.2474394,6.78209796 90.1041464,6.78209796 C89.874977,6.80359766 89.6496018,6.8532741 89.4330337,6.92980601 L89.219587,7.01524082 L89.219587,6.42572245 C90.1196262,5.7329551 91.0229825,5.45318367 91.8787937,5.45318367 Z M5.23177657,5.25889796 L5.23177657,7.68247347 C5.29863093,7.55523325 5.28174089,13.5056623 5.27780895,14.6679327 L5.27711024,14.8632735 C5.27711024,15.4664522 5.60488214,15.6369157 7.06551678,15.690434 L7.27179171,15.6970367 L7.27179171,15.9668163 L0.724946372,15.9668163 L0.724946372,15.6970367 C1.96023359,15.6748882 2.26448609,15.5114633 2.29182312,14.9545191 L2.29393363,14.8632735 L2.29393363,7.1196 C2.29393363,6.47834612 2.05144549,6.05952718 0.912349958,6.0002112 L0.724946372,5.99385306 L0.724946372,5.72407347 L5.23177657,5.25889796 Z M28.4614124,5.52090612 C28.4614124,5.52090612 28.5205836,7.98299136 28.5080712,8.24528772 L28.5056404,8.26755102 L28.5056404,14.8632735 C28.5056404,15.4544571 28.7816333,15.6494801 29.5367873,15.690759 L29.6942671,15.6970367 L29.6942671,15.9668163 L23.9545822,15.9668163 L23.9545822,15.6970367 C25.1898694,15.6748882 25.4941219,15.5114633 25.521459,14.9545191 L25.5235695,14.8632735 L25.5235695,7.1196 C25.5235695,6.47834612 25.2810813,6.05952718 24.1419858,6.0002112 L23.9545822,5.99385306 L23.9545822,5.72407347 L28.4614124,5.52090612 Z M32.3402054,5.45318367 C34.1559611,5.45318367 35.0751864,6.49995602 35.1385293,8.47205565 L35.1420474,8.69497959 L35.1420474,14.8632735 C35.1420474,15.4623396 35.3645776,15.6546103 36.4978854,15.6923288 L36.6844978,15.6970367 L36.6844978,15.9668163 L30.922699,15.9668163 L30.922699,15.6970367 C31.7675223,15.6751796 32.1118656,15.5157395 32.1516084,14.9762999 L32.1555536,14.8632735 L32.1555536,8.89814694 C32.1555536,7.54702857 31.7077454,6.78209796 30.5644524,6.78209796 C30.3353169,6.8037895 30.1099731,6.85350785 29.8933823,6.92994536 L29.679893,7.01524082 L29.679893,6.42572245 C30.5810379,5.7329551 31.4832885,5.45318367 32.3402054,5.45318367 Z M55.4968651,5.51979592 L55.4968651,14.8621633 C55.4968651,15.4927592 55.743436,15.6726122 57.0658524,15.6959265 L57.0658524,15.9657061 L50.9004733,15.9657061 L50.9004733,15.6970367 C52.1786616,15.6737224 52.5147942,15.4938694 52.5147942,14.8632735 L52.5147942,7.1196 C52.5147942,6.44459592 52.1830844,6.01605714 50.9004733,5.99385306 L50.9004733,5.72407347 L55.4968651,5.51979592 Z M68.8935174,5.58085714 L68.8935174,5.8961551 L61.9408804,15.9568245 L59.03068,15.9568245 L59.03068,15.6193224 L65.9623086,5.58085714 L68.8935174,5.58085714 Z M68.7132884,12.2032245 L68.7132884,15.9568245 L65.8428931,15.9568245 L68.4324408,12.2032245 L68.7132884,12.2032245 Z M17.2827928,5.814 C16.0267185,5.814 15.3986813,7.34497143 15.3091197,9.97837551 L18.9866754,9.97837551 C19.2553603,7.41158367 18.6947708,5.814 17.2827928,5.814 Z M62.2427363,5.58085714 L59.6531886,9.33445714 L59.3734467,9.33445714 L59.3734467,5.58085714 L62.2427363,5.58085714 Z M40.8408214,5.82510204 C41.7702472,5.82510204 42.5236956,6.5816202 42.5236956,7.51483265 C42.5236956,8.4480451 41.7702472,9.20456327 40.8408214,9.20456327 C39.9113956,9.20456327 39.1579471,8.4480451 39.1579471,7.51483265 C39.1579471,6.5816202 39.9113956,5.82510204 40.8408214,5.82510204 Z M73.5142346,5.82510204 C74.4436604,5.82510204 75.1971089,6.5816202 75.1971089,7.51483265 C75.1971089,8.4480451 74.4436604,9.20456327 73.5142346,9.20456327 C72.5848088,9.20456327 71.8313603,8.4480451 71.8313603,7.51483265 C71.8313603,6.5816202 72.5848088,5.82510204 73.5142346,5.82510204 Z M8.53892307,5.45318367 C9.52330835,5.45318367 10.3213103,6.25443681 10.3213103,7.24283265 C10.3213103,8.23122849 9.52330835,9.03248163 8.53892307,9.03248163 C7.55453779,9.03248163 6.75653586,8.23122849 6.75653586,7.24283265 C6.75653586,6.25443681 7.55453779,5.45318367 8.53892307,5.45318367 Z M53.9477804,0.230783673 C55.0004061,0.230783673 55.6969967,0.929102041 55.6969967,1.98712653 C55.6969967,3.08955918 55.0026175,3.78787755 53.9477804,3.78787755 C52.8929433,3.78787755 52.1786616,3.15728163 52.1786616,2.05373878 C52.1786616,0.973510204 52.8951547,0.230783673 53.9477804,0.230783673 Z"></path>
                                </g>
                                <g id="logo">
                                    <path d="M0,0 L24,0 L24,24 L0,24 L0,0 Z" id="bg" fill="#DC1E50"></path>
                                    <path d="M11,6 L11,18 L7,18 L7,9.53731343 L11,6 Z M16,6 C17.6568542,6 19,7.34314575 19,9 C19,10.6568542 17.6568542,12 16,12 C14.3431458,12 13,10.6568542 13,9 C13,7.34314575 14.3431458,6 16,6 Z" id="icon" fill="#FFFFFF"></path>
                                </g>
                            </g>
                        </g>
                    </g>
                </g>
            </g>
        </g>
    </g>
</svg>